<?xml version="1.0" encoding="UTF-8"?>
<svg id="Layer_1" data-name="Layer 1" xmlns="http://www.w3.org/2000/svg" viewBox="0 0 295.15 295.15">
  <defs>
    <style>
      .cls-1 {
        fill: #fff;
      }

      .cls-2 {
        fill: #231f20;
      }
    </style>
  </defs>
  <g id="Layer_1-2" data-name="Layer 1">
    <rect class="cls-1" width="295.15" height="295.15"/>
    <g>
      <path class="cls-2" d="M93.91,160.98c0,11.67-9.57,18.17-22.56,18.17s-20.8-7.2-20.89-7.29l6.15-12.2s6.58,5.97,15.19,5.97c5.44,0,8.6-2.19,8.6-5.79,0-10.8-31.25-7.02-31.25-30.29,0-11.94,10.45-18.17,22.21-18.17,13.34,0,20.8,6.94,21.24,7.29l-6.41,12.11s-6.5-5.88-15.71-5.88c-4.21,0-7.81,1.84-7.81,5.71,0,10.97,31.25,6.76,31.25,30.37h0Z"/>
      <path class="cls-2" d="M205.38,112.35h28.79c11.59,0,20.89,9.31,20.89,20.89s-9.22,20.98-20.89,20.98h-15.27v23.96h-13.52v-65.84h0ZM234.18,140.7c4.21,0,7.37-3.34,7.37-7.46s-3.34-7.37-7.37-7.37h-15.27v14.84h15.27Z"/>
    </g>
    <rect class="cls-2" x="101.12" y="141.57" width="92.9" height="12"/>
  </g>
</svg>