<svg xmlns="http://www.w3.org/2000/svg" viewBox="90 340 840 95">
  <g fill="#000">
    <path d="M145.59,407.25c0,11.67-9.57,18.17-22.56,18.17s-20.8-7.2-20.89-7.29l6.15-12.2s6.58,5.97,15.19,5.97c5.44,0,8.6-2.19,8.6-5.79,0-10.8-31.25-7.02-31.25-30.29,0-11.94,10.45-18.17,22.21-18.17,13.34,0,20.8,6.94,21.24,7.29l-6.41,12.11s-6.5-5.88-15.71-5.88c-4.21,0-7.81,1.84-7.81,5.71,0,10.97,31.25,6.76,31.25,30.37Z"/>
    <path d="M180.79,410.5l5.18,11.76c-.79.26-7.29,3.07-14.05,3.07-12.38,0-20.19-7.9-20.19-20.45v-46.26h12.82v13.17h17.21v12.82h-17.21v20.28c0,4.56,1.32,7.64,7.37,7.64,3.42,0,7.64-1.49,8.87-2.02Z"/>
    <path d="M221.17,371.78h12.82v52.67h-12.82v-5.62c-3.25,3.6-7.81,6.5-14.05,6.5-9.39,0-17.64-6.93-17.64-20.19v-33.36h12.82v30.37c0,7.37,3.69,11.06,9.04,11.06s9.83-4.83,9.83-10.53v-30.9Z"/>
    <path d="M264.01,370.9c7.29,0,12.2,2.9,15.27,6.5v-24.93h12.82v71.98h-12.82v-5.62c-3.07,3.6-7.99,6.5-15.27,6.5-12.9,0-23.88-10.8-23.88-27.21s10.97-27.21,23.88-27.21ZM266.02,413.22c8.52,0,13.26-6.85,13.26-15.1s-4.74-15.1-13.26-15.1c-6.94,0-12.73,5.62-12.73,15.1s5.79,15.1,12.73,15.1Z"/>
    <path d="M313.95,357.82c0,4.13-3.34,7.46-7.46,7.46s-7.55-3.34-7.55-7.46,3.34-7.55,7.55-7.55,7.46,3.34,7.46,7.55ZM300.08,371.78h12.82v52.67h-12.82v-52.67Z"/>
    <path d="M319.04,398.12c0-15.62,10.88-27.21,25.81-27.21s25.81,11.59,25.81,27.21-10.89,27.21-25.81,27.21-25.81-11.59-25.81-27.21ZM357.49,398.12c0-9.48-5.79-14.66-12.64-14.66s-12.64,5.18-12.64,14.66,5.79,14.66,12.64,14.66,12.64-5.18,12.64-14.66Z"/>
    <path d="M587.47,358.61h28.79c11.59,0,20.89,9.31,20.89,20.89s-9.22,20.98-20.89,20.98h-15.27v23.96h-13.52v-65.84ZM616.26,386.97c4.21,0,7.37-3.34,7.37-7.46s-3.34-7.37-7.37-7.37h-15.27v14.84h15.27Z"/>
    <path d="M642.42,352.47h12.82v71.98h-12.82v-71.98Z"/>
    <path d="M700.53,371.78h12.82v52.67h-12.82v-5.62c-3.07,3.6-7.99,6.5-15.27,6.5-12.9,0-23.88-10.8-23.88-27.21s10.97-27.21,23.88-27.21c7.29,0,12.2,2.9,15.27,6.5v-5.62ZM687.28,383.02c-6.93,0-12.73,5.62-12.73,15.1s5.79,15.1,12.73,15.1c8.51,0,13.25-6.85,13.25-15.1s-4.74-15.1-13.25-15.1Z"/>
    <path d="M735.21,357.82c0,4.13-3.33,7.46-7.46,7.46s-7.55-3.34-7.55-7.46,3.33-7.55,7.55-7.55,7.46,3.34,7.46,7.55ZM721.34,371.78h12.82v52.67h-12.82v-52.67Z"/>
    <path d="M777.08,410.41c-.35,8.87-8.16,15.19-20.01,14.75-10.18-.44-16.5-6.58-16.5-6.67,0,0,6.58-9.04,6.67-9.13-.09.09,4.13,3.51,10.18,3.77,4.56.09,6.76-1.4,6.85-4.04.18-7.64-24.49-5.09-23.88-23.88.44-10.53,10.45-15.01,20.1-14.75,9.92.35,15.89,6.23,15.89,6.32l-6.76,9.48c-.09-.09-3.33-3.51-9.3-3.6-4.74-.17-7.11,1.67-7.2,4.3-.18,7.11,24.58,4.21,23.96,23.44Z"/>
    <path d="M811.49,410.5l5.18,11.76c-.79.26-7.29,3.07-14.05,3.07-12.38,0-20.19-7.9-20.19-20.45v-46.26h12.82v13.17h17.21v12.82h-17.21v20.28c0,4.56,1.32,7.64,7.37,7.64,3.42,0,7.64-1.49,8.87-2.02Z"/>
    <path d="M868.19,397.77v3.6h-38.1c1.14,7.46,6.41,11.41,12.38,11.41,5,0,9.57-2.81,11.59-8.16l12.2,4.65c-3.34,8.52-11.68,16.06-23.79,16.06-15.1,0-25.81-11.76-25.81-27.21s10.53-27.21,25.98-27.21,25.54,11.5,25.54,26.86ZM854.15,393.03c-1.49-6.06-6.14-9.57-11.5-9.57-5.62,0-10.45,3.25-12.2,9.57h23.7Z"/>
    <path d="M896.46,370.9c7.29,0,12.2,2.9,15.27,6.5v-24.93h12.82v71.98h-12.82v-5.62c-3.07,3.6-7.99,6.5-15.27,6.5-12.9,0-23.88-10.8-23.88-27.21s10.97-27.21,23.88-27.21ZM898.48,413.22c8.51,0,13.25-6.85,13.25-15.1s-4.74-15.1-13.25-15.1c-6.94,0-12.73,5.62-12.73,15.1s5.79,15.1,12.73,15.1Z"/>
  </g>
  <rect fill="#000" x="385.81" y="387.84" width="185.81" height="12"/>
</svg>